<mxfile host="app.diagrams.net" modified="2023-06-12T17:01:09.504Z" agent="Mozilla/5.0 (Windows NT 10.0; Win64; x64) AppleWebKit/537.36 (KHTML, like Gecko) Chrome/114.0.0.0 Safari/537.36" version="21.3.6" etag="yUkknvWw5DYtlQbnOg7j" type="github">
  <diagram name="PÃ¡gina-1" id="4vPiLo9kG4Ly2gTh2Vz6">
    <mxGraphModel>
      <root>
        <mxCell id="0" />
        <mxCell id="1" parent="0" />
      </root>
    </mxGraphModel>
  </diagram>
</mxfile>
